<?xml version="1.0" encoding="UTF-8" standalone="no"?>
<!-- Created with Inkscape (http://www.inkscape.org/) -->

<svg
   width="36.113167mm"
   height="35.960815mm"
   viewBox="0 0 36.113166 35.960816"
   version="1.1"
   id="svg1"
   xml:space="preserve"
   inkscape:version="1.4.1-rc (832c77b156, 2025-02-28)"
   sodipodi:docname="favicon.svg"
   xmlns:inkscape="http://www.inkscape.org/namespaces/inkscape"
   xmlns:sodipodi="http://sodipodi.sourceforge.net/DTD/sodipodi-0.dtd"
   xmlns:xlink="http://www.w3.org/1999/xlink"
   xmlns="http://www.w3.org/2000/svg"
   xmlns:svg="http://www.w3.org/2000/svg"><sodipodi:namedview
     id="namedview1"
     pagecolor="#e1e1e1"
     bordercolor="#666666"
     borderopacity="1.0"
     inkscape:showpageshadow="2"
     inkscape:pageopacity="0.0"
     inkscape:pagecheckerboard="0"
     inkscape:deskcolor="#ede0e0"
     inkscape:document-units="mm"
     showborder="false"
     inkscape:zoom="0.54740759"
     inkscape:cx="210.99452"
     inkscape:cy="205.51414"
     inkscape:window-width="1920"
     inkscape:window-height="946"
     inkscape:window-x="0"
     inkscape:window-y="0"
     inkscape:window-maximized="1"
     inkscape:current-layer="g311"
     showgrid="false" /><defs
     id="defs1"><inkscape:path-effect
       effect="spiro"
       id="path-effect472"
       is_visible="true"
       lpeversion="1" /><inkscape:path-effect
       effect="spiro"
       id="path-effect470"
       is_visible="true"
       lpeversion="1" /><inkscape:path-effect
       effect="spiro"
       id="path-effect468"
       is_visible="true"
       lpeversion="1" /><inkscape:path-effect
       effect="fillet_chamfer"
       id="path-effect465"
       is_visible="true"
       lpeversion="1"
       nodesatellites_param="F,0,1,1,0,2.9104166,0,1 @ F,0,0,1,0,0,0,1 @ F,0,0,1,0,0,0,1 @ F,0,0,1,0,0,0,1"
       radius="11"
       unit="px"
       method="auto"
       mode="F"
       chamfer_steps="1"
       flexible="false"
       use_knot_distance="true"
       apply_no_radius="true"
       apply_with_radius="true"
       only_selected="true"
       hide_knots="false" /><inkscape:path-effect
       effect="spiro"
       id="path-effect463"
       is_visible="true"
       lpeversion="1" /><inkscape:path-effect
       effect="spiro"
       id="path-effect418"
       is_visible="true"
       lpeversion="1" /><inkscape:path-effect
       effect="spiro"
       id="path-effect416"
       is_visible="true"
       lpeversion="1" /><inkscape:path-effect
       effect="spiro"
       id="path-effect394"
       is_visible="true"
       lpeversion="1" /><inkscape:path-effect
       effect="fillet_chamfer"
       id="path-effect352"
       is_visible="true"
       lpeversion="1"
       nodesatellites_param="F,0,1,1,0,2.9104166,0,1 @ F,0,0,1,0,0,0,1 @ F,0,0,1,0,0,0,1 @ F,0,0,1,0,0,0,1"
       radius="11"
       unit="px"
       method="auto"
       mode="F"
       chamfer_steps="1"
       flexible="false"
       use_knot_distance="true"
       apply_no_radius="true"
       apply_with_radius="true"
       only_selected="true"
       hide_knots="false" /><inkscape:path-effect
       effect="spiro"
       id="path-effect350"
       is_visible="true"
       lpeversion="1" /><pattern
       id="tecky"
       width="12"
       height="12"
       patternUnits="userSpaceOnUse"
       patternTransform="scale(0.65)"><rect
         x="0"
         y="0"
         width="12"
         height="12"
         fill="white"
         id="rect28" /><circle
         id="kruh"
         cx="0"
         cy="0"
         r="1.75"
         fill="black" /><use
         xlink:href="#kruh"
         x="6"
         y="6"
         id="use28" /><use
         xlink:href="#kruh"
         x="0"
         y="12"
         id="use29" /><use
         xlink:href="#kruh"
         x="12"
         y="0"
         id="use30" /><use
         xlink:href="#kruh"
         x="12"
         y="12"
         id="use31" /></pattern><pattern
       id="tecky-2"
       width="12"
       height="12"
       patternUnits="userSpaceOnUse"
       patternTransform="scale(0.65)"><rect
         x="0"
         y="0"
         width="12"
         height="12"
         fill="white"
         id="rect28-3" /><circle
         id="kruh-3"
         cx="0"
         cy="0"
         r="1.75"
         fill="black" /><use
         xlink:href="#kruh-3"
         x="6"
         y="6"
         id="use28-4" /><use
         xlink:href="#kruh-3"
         x="0"
         y="12"
         id="use29-1" /><use
         xlink:href="#kruh-3"
         x="12"
         y="0"
         id="use30-1" /><use
         xlink:href="#kruh-3"
         x="12"
         y="12"
         id="use31-3" /></pattern><pattern
       id="tecky-4"
       width="12"
       height="12"
       patternUnits="userSpaceOnUse"
       patternTransform="scale(0.65)"><rect
         x="0"
         y="0"
         width="12"
         height="12"
         fill="white"
         id="rect28-8" /><circle
         id="kruh-4"
         cx="0"
         cy="0"
         r="1.75"
         fill="black" /><use
         xlink:href="#kruh-4"
         x="6"
         y="6"
         id="use28-9" /><use
         xlink:href="#kruh-4"
         x="0"
         y="12"
         id="use29-9" /><use
         xlink:href="#kruh-4"
         x="12"
         y="0"
         id="use30-2" /><use
         xlink:href="#kruh-4"
         x="12"
         y="12"
         id="use31-5" /></pattern></defs><g
     inkscape:label="Vrstva 1"
     inkscape:groupmode="layer"
     id="layer1"
     transform="translate(-1289.1414,-1122.0836)"><g
       id="g87"
       transform="matrix(0.26458333,0,0,0.26458333,-49.29183,254.685)" /><g
       id="g311"
       transform="translate(927.72444,255.11727)"
       inkscape:export-filename="transparent light.png"
       inkscape:export-xdpi="210.79333"
       inkscape:export-ydpi="210.79333"><g
         id="g290"
         transform="matrix(0.11170889,0,0,0.11170856,345.96084,851.4974)"
         style="fill:#f1c40f;stroke:#f1c40f;stroke-width:2.23796;stroke-dasharray:none"><g
           id="g272"
           transform="rotate(-90,237.5375,-62.462498)"
           style="fill:#f1c40f;stroke:#f1c40f;stroke-width:2.23796;stroke-dasharray:none"><circle
             cx="0"
             cy="0"
             style="fill:#f1c40f;stroke:#f1c40f;stroke-width:2.23796;stroke-dasharray:none"
             id="circle271"
             r="10" /><path
             id="path272"
             style="fill:#f1c40f;stroke:#f1c40f;stroke-width:2.33355;stroke-linecap:round;stroke-linejoin:round;stroke-dasharray:none;paint-order:markers fill stroke"
             transform="matrix(0,1.1469868,-0.80187926,0,-23.405638,0)"
             d="m -9.2853851,-61.663979 c 0.424832,-4.020497 1.761795,-12 1.761795,-12 l 3.761795,12 3.7617951,-12 3.7617951,12 3.761795,-12 c 0,0 1.336963,7.979503 1.761795,12 C 11.449839,-41.180157 13.377906,-20.597652 13.285385,0 13.183799,22.615926 8.2853851,67.663979 8.2853851,67.663979 H -8.2853851 c 0,0 -4.8984139,-45.048053 -4.9999999,-67.663979 -0.09252,-20.597652 1.835546,-41.180157 3.9999999,-61.663979 z"
             sodipodi:nodetypes="acccccaaccaa" /></g><g
           id="g273"
           transform="rotate(-68.823529,306.51051,-160.15702)"
           style="fill:#f1c40f;stroke:#f1c40f;stroke-width:2.23796;stroke-dasharray:none"><circle
             cx="0"
             cy="0"
             style="fill:#f1c40f;stroke:#f1c40f;stroke-width:2.23796;stroke-dasharray:none"
             id="circle272"
             r="10" /><path
             id="path273"
             style="fill:#f1c40f;stroke:#f1c40f;stroke-width:2.33355;stroke-linecap:round;stroke-linejoin:round;stroke-dasharray:none;paint-order:markers fill stroke"
             transform="matrix(0,1.1469868,-0.80187926,0,-23.405638,0)"
             d="m -9.2853851,-61.663979 c 0.424832,-4.020497 1.761795,-12 1.761795,-12 l 3.761795,12 3.7617951,-12 3.7617951,12 3.761795,-12 c 0,0 1.336963,7.979503 1.761795,12 C 11.449839,-41.180157 13.377906,-20.597652 13.285385,0 13.183799,22.615926 8.2853851,67.663979 8.2853851,67.663979 H -8.2853851 c 0,0 -4.8984139,-45.048053 -4.9999999,-67.663979 -0.09252,-20.597652 1.835546,-41.180157 3.9999999,-61.663979 z"
             sodipodi:nodetypes="acccccaaccaa" /></g><g
           id="g274"
           transform="rotate(-47.647059,427.2551,-331.1817)"
           style="fill:#f1c40f;stroke:#f1c40f;stroke-width:2.23796;stroke-dasharray:none"><circle
             cx="0"
             cy="0"
             style="fill:#f1c40f;stroke:#f1c40f;stroke-width:2.23796;stroke-dasharray:none"
             id="circle273"
             r="10" /><path
             id="path274"
             style="fill:#f1c40f;stroke:#f1c40f;stroke-width:2.33355;stroke-linecap:round;stroke-linejoin:round;stroke-dasharray:none;paint-order:markers fill stroke"
             transform="matrix(0,1.1469868,-0.80187926,0,-23.405638,0)"
             d="m -9.2853851,-61.663979 c 0.424832,-4.020497 1.761795,-12 1.761795,-12 l 3.761795,12 3.7617951,-12 3.7617951,12 3.761795,-12 c 0,0 1.336963,7.979503 1.761795,12 C 11.449839,-41.180157 13.377906,-20.597652 13.285385,0 13.183799,22.615926 8.2853851,67.663979 8.2853851,67.663979 H -8.2853851 c 0,0 -4.8984139,-45.048053 -4.9999999,-67.663979 -0.09252,-20.597652 1.835546,-41.180157 3.9999999,-61.663979 z"
             sodipodi:nodetypes="acccccaaccaa" /></g><g
           id="g275"
           transform="rotate(-26.470588,725.29839,-753.33517)"
           style="fill:#f1c40f;stroke:#f1c40f;stroke-width:2.23796;stroke-dasharray:none"><circle
             cx="0"
             cy="0"
             style="fill:#f1c40f;stroke:#f1c40f;stroke-width:2.23796;stroke-dasharray:none"
             id="circle274"
             r="10" /><path
             id="path275"
             style="fill:#f1c40f;stroke:#f1c40f;stroke-width:2.33355;stroke-linecap:round;stroke-linejoin:round;stroke-dasharray:none;paint-order:markers fill stroke"
             transform="matrix(0,1.1469868,-0.80187926,0,-23.405638,0)"
             d="m -9.2853851,-61.663979 c 0.424832,-4.020497 1.761795,-12 1.761795,-12 l 3.761795,12 3.7617951,-12 3.7617951,12 3.761795,-12 c 0,0 1.336963,7.979503 1.761795,12 C 11.449839,-41.180157 13.377906,-20.597652 13.285385,0 13.183799,22.615926 8.2853851,67.663979 8.2853851,67.663979 H -8.2853851 c 0,0 -4.8984139,-45.048053 -4.9999999,-67.663979 -0.09252,-20.597652 1.835546,-41.180157 3.9999999,-61.663979 z"
             sodipodi:nodetypes="acccccaaccaa" /></g><g
           id="g276"
           transform="rotate(-5.2941176,3331.9882,-4445.4938)"
           style="fill:#f1c40f;stroke:#f1c40f;stroke-width:2.23796;stroke-dasharray:none"><circle
             cx="0"
             cy="0"
             style="fill:#f1c40f;stroke:#f1c40f;stroke-width:2.23796;stroke-dasharray:none"
             id="circle275"
             r="10" /><path
             id="path276"
             style="fill:#f1c40f;stroke:#f1c40f;stroke-width:2.33355;stroke-linecap:round;stroke-linejoin:round;stroke-dasharray:none;paint-order:markers fill stroke"
             transform="matrix(0,1.1469868,-0.80187926,0,-23.405638,0)"
             d="m -9.2853851,-61.663979 c 0.424832,-4.020497 1.761795,-12 1.761795,-12 l 3.761795,12 3.7617951,-12 3.7617951,12 3.761795,-12 c 0,0 1.336963,7.979503 1.761795,12 C 11.449839,-41.180157 13.377906,-20.597652 13.285385,0 13.183799,22.615926 8.2853851,67.663979 8.2853851,67.663979 H -8.2853851 c 0,0 -4.8984139,-45.048053 -4.9999999,-67.663979 -0.09252,-20.597652 1.835546,-41.180157 3.9999999,-61.663979 z"
             sodipodi:nodetypes="acccccaaccaa" /></g><g
           id="g277"
           transform="rotate(15.882353,-987.77723,1673.0937)"
           style="fill:#f1c40f;stroke:#f1c40f;stroke-width:2.23796;stroke-dasharray:none"><circle
             cx="0"
             cy="0"
             style="fill:#f1c40f;stroke:#f1c40f;stroke-width:2.23796;stroke-dasharray:none"
             id="circle276"
             r="10" /><path
             id="path277"
             style="fill:#f1c40f;stroke:#f1c40f;stroke-width:2.33355;stroke-linecap:round;stroke-linejoin:round;stroke-dasharray:none;paint-order:markers fill stroke"
             transform="matrix(0,1.1469868,-0.80187926,0,-23.405638,0)"
             d="m -9.2853851,-61.663979 c 0.424832,-4.020497 1.761795,-12 1.761795,-12 l 3.761795,12 3.7617951,-12 3.7617951,12 3.761795,-12 c 0,0 1.336963,7.979503 1.761795,12 C 11.449839,-41.180157 13.377906,-20.597652 13.285385,0 13.183799,22.615926 8.2853851,67.663979 8.2853851,67.663979 H -8.2853851 c 0,0 -4.8984139,-45.048053 -4.9999999,-67.663979 -0.09252,-20.597652 1.835546,-41.180157 3.9999999,-61.663979 z"
             sodipodi:nodetypes="acccccaaccaa" /></g><g
           id="g278"
           transform="rotate(37.058824,-360.00161,783.90188)"
           style="fill:#f1c40f;stroke:#f1c40f;stroke-width:2.23796;stroke-dasharray:none"><circle
             cx="0"
             cy="0"
             style="fill:#f1c40f;stroke:#f1c40f;stroke-width:2.23796;stroke-dasharray:none"
             id="circle277"
             r="10" /><path
             id="path278"
             style="fill:#f1c40f;stroke:#f1c40f;stroke-width:2.33355;stroke-linecap:round;stroke-linejoin:round;stroke-dasharray:none;paint-order:markers fill stroke"
             transform="matrix(0,1.1469868,-0.80187926,0,-23.405638,0)"
             d="m -9.2853851,-61.663979 c 0.424832,-4.020497 1.761795,-12 1.761795,-12 l 3.761795,12 3.7617951,-12 3.7617951,12 3.761795,-12 c 0,0 1.336963,7.979503 1.761795,12 C 11.449839,-41.180157 13.377906,-20.597652 13.285385,0 13.183799,22.615926 8.2853851,67.663979 8.2853851,67.663979 H -8.2853851 c 0,0 -4.8984139,-45.048053 -4.9999999,-67.663979 -0.09252,-20.597652 1.835546,-41.180157 3.9999999,-61.663979 z"
             sodipodi:nodetypes="acccccaaccaa" /></g><g
           id="g279"
           transform="rotate(58.235294,-181.76408,531.44324)"
           style="fill:#f1c40f;stroke:#f1c40f;stroke-width:2.23796;stroke-dasharray:none"><circle
             cx="0"
             cy="0"
             style="fill:#f1c40f;stroke:#f1c40f;stroke-width:2.23796;stroke-dasharray:none"
             id="circle278"
             r="10" /><path
             id="path279"
             style="fill:#f1c40f;stroke:#f1c40f;stroke-width:2.33355;stroke-linecap:round;stroke-linejoin:round;stroke-dasharray:none;paint-order:markers fill stroke"
             transform="matrix(0,1.1469868,-0.80187926,0,-23.405638,0)"
             d="m -9.2853851,-61.663979 c 0.424832,-4.020497 1.761795,-12 1.761795,-12 l 3.761795,12 3.7617951,-12 3.7617951,12 3.761795,-12 c 0,0 1.336963,7.979503 1.761795,12 C 11.449839,-41.180157 13.377906,-20.597652 13.285385,0 13.183799,22.615926 8.2853851,67.663979 8.2853851,67.663979 H -8.2853851 c 0,0 -4.8984139,-45.048053 -4.9999999,-67.663979 -0.09252,-20.597652 1.835546,-41.180157 3.9999999,-61.663979 z"
             sodipodi:nodetypes="acccccaaccaa" /></g><g
           id="g280"
           transform="rotate(79.411765,-93.100627,405.85886)"
           style="fill:#f1c40f;stroke:#f1c40f;stroke-width:2.23796;stroke-dasharray:none"><circle
             cx="0"
             cy="0"
             style="fill:#f1c40f;stroke:#f1c40f;stroke-width:2.23796;stroke-dasharray:none"
             id="circle279"
             r="10" /><path
             id="path280"
             style="fill:#f1c40f;stroke:#f1c40f;stroke-width:2.33355;stroke-linecap:round;stroke-linejoin:round;stroke-dasharray:none;paint-order:markers fill stroke"
             transform="matrix(0,1.1469868,-0.80187926,0,-23.405638,0)"
             d="m -9.2853851,-61.663979 c 0.424832,-4.020497 1.761795,-12 1.761795,-12 l 3.761795,12 3.7617951,-12 3.7617951,12 3.761795,-12 c 0,0 1.336963,7.979503 1.761795,12 C 11.449839,-41.180157 13.377906,-20.597652 13.285385,0 13.183799,22.615926 8.2853851,67.663979 8.2853851,67.663979 H -8.2853851 c 0,0 -4.8984139,-45.048053 -4.9999999,-67.663979 -0.09252,-20.597652 1.835546,-41.180157 3.9999999,-61.663979 z"
             sodipodi:nodetypes="acccccaaccaa" /></g><g
           id="g281"
           transform="rotate(100.58824,-37.020922,326.42662)"
           style="fill:#f1c40f;stroke:#f1c40f;stroke-width:2.23796;stroke-dasharray:none"><circle
             cx="0"
             cy="0"
             style="fill:#f1c40f;stroke:#f1c40f;stroke-width:2.23796;stroke-dasharray:none"
             id="circle280"
             r="10" /><path
             id="path281"
             style="fill:#f1c40f;stroke:#f1c40f;stroke-width:2.33355;stroke-linecap:round;stroke-linejoin:round;stroke-dasharray:none;paint-order:markers fill stroke"
             transform="matrix(0,1.1469868,-0.80187926,0,-23.405638,0)"
             d="m -9.2853851,-61.663979 c 0.424832,-4.020497 1.761795,-12 1.761795,-12 l 3.761795,12 3.7617951,-12 3.7617951,12 3.761795,-12 c 0,0 1.336963,7.979503 1.761795,12 C 11.449839,-41.180157 13.377906,-20.597652 13.285385,0 13.183799,22.615926 8.2853851,67.663979 8.2853851,67.663979 H -8.2853851 c 0,0 -4.8984139,-45.048053 -4.9999999,-67.663979 -0.09252,-20.597652 1.835546,-41.180157 3.9999999,-61.663979 z"
             sodipodi:nodetypes="acccccaaccaa" /></g><g
           id="g282"
           transform="rotate(121.76471,3.9880492,268.34083)"
           style="fill:#f1c40f;stroke:#f1c40f;stroke-width:2.23796;stroke-dasharray:none"><circle
             cx="0"
             cy="0"
             style="fill:#f1c40f;stroke:#f1c40f;stroke-width:2.23796;stroke-dasharray:none"
             id="circle281"
             r="10" /><path
             id="path282"
             style="fill:#f1c40f;stroke:#f1c40f;stroke-width:2.33355;stroke-linecap:round;stroke-linejoin:round;stroke-dasharray:none;paint-order:markers fill stroke"
             transform="matrix(0,1.1469868,-0.80187926,0,-23.405638,0)"
             d="m -9.2853851,-61.663979 c 0.424832,-4.020497 1.761795,-12 1.761795,-12 l 3.761795,12 3.7617951,-12 3.7617951,12 3.761795,-12 c 0,0 1.336963,7.979503 1.761795,12 C 11.449839,-41.180157 13.377906,-20.597652 13.285385,0 13.183799,22.615926 8.2853851,67.663979 8.2853851,67.663979 H -8.2853851 c 0,0 -4.8984139,-45.048053 -4.9999999,-67.663979 -0.09252,-20.597652 1.835546,-41.180157 3.9999999,-61.663979 z"
             sodipodi:nodetypes="acccccaaccaa" /></g><g
           id="g283"
           transform="rotate(142.94118,37.262572,221.21026)"
           style="fill:#f1c40f;stroke:#f1c40f;stroke-width:2.23796;stroke-dasharray:none"><circle
             cx="0"
             cy="0"
             style="fill:#f1c40f;stroke:#f1c40f;stroke-width:2.23796;stroke-dasharray:none"
             id="circle282"
             r="10" /><path
             id="path283"
             style="fill:#f1c40f;stroke:#f1c40f;stroke-width:2.33355;stroke-linecap:round;stroke-linejoin:round;stroke-dasharray:none;paint-order:markers fill stroke"
             transform="matrix(0,1.1469868,-0.80187926,0,-23.405638,0)"
             d="m -9.2853851,-61.663979 c 0.424832,-4.020497 1.761795,-12 1.761795,-12 l 3.761795,12 3.7617951,-12 3.7617951,12 3.761795,-12 c 0,0 1.336963,7.979503 1.761795,12 C 11.449839,-41.180157 13.377906,-20.597652 13.285385,0 13.183799,22.615926 8.2853851,67.663979 8.2853851,67.663979 H -8.2853851 c 0,0 -4.8984139,-45.048053 -4.9999999,-67.663979 -0.09252,-20.597652 1.835546,-41.180157 3.9999999,-61.663979 z"
             sodipodi:nodetypes="acccccaaccaa" /></g><g
           id="g284"
           transform="rotate(164.11765,66.613393,179.63725)"
           style="fill:#f1c40f;stroke:#f1c40f;stroke-width:2.23796;stroke-dasharray:none"><circle
             cx="0"
             cy="0"
             style="fill:#f1c40f;stroke:#f1c40f;stroke-width:2.23796;stroke-dasharray:none"
             id="circle283"
             r="10" /><path
             id="path284"
             style="fill:#f1c40f;stroke:#f1c40f;stroke-width:2.33355;stroke-linecap:round;stroke-linejoin:round;stroke-dasharray:none;paint-order:markers fill stroke"
             transform="matrix(0,1.1469868,-0.80187926,0,-23.405638,0)"
             d="m -9.2853851,-61.663979 c 0.424832,-4.020497 1.761795,-12 1.761795,-12 l 3.761795,12 3.7617951,-12 3.7617951,12 3.761795,-12 c 0,0 1.336963,7.979503 1.761795,12 C 11.449839,-41.180157 13.377906,-20.597652 13.285385,0 13.183799,22.615926 8.2853851,67.663979 8.2853851,67.663979 H -8.2853851 c 0,0 -4.8984139,-45.048053 -4.9999999,-67.663979 -0.09252,-20.597652 1.835546,-41.180157 3.9999999,-61.663979 z"
             sodipodi:nodetypes="acccccaaccaa" /></g><g
           id="g285"
           transform="rotate(-174.70588,94.472418,140.17726)"
           style="fill:#f1c40f;stroke:#f1c40f;stroke-width:2.23796;stroke-dasharray:none"><circle
             cx="0"
             cy="0"
             style="fill:#f1c40f;stroke:#f1c40f;stroke-width:2.23796;stroke-dasharray:none"
             id="circle284"
             r="10" /><path
             id="path285"
             style="fill:#f1c40f;stroke:#f1c40f;stroke-width:2.33355;stroke-linecap:round;stroke-linejoin:round;stroke-dasharray:none;paint-order:markers fill stroke"
             transform="matrix(0,1.1469868,-0.80187926,0,-23.405638,0)"
             d="m -9.2853851,-61.663979 c 0.424832,-4.020497 1.761795,-12 1.761795,-12 l 3.761795,12 3.7617951,-12 3.7617951,12 3.761795,-12 c 0,0 1.336963,7.979503 1.761795,12 C 11.449839,-41.180157 13.377906,-20.597652 13.285385,0 13.183799,22.615926 8.2853851,67.663979 8.2853851,67.663979 H -8.2853851 c 0,0 -4.8984139,-45.048053 -4.9999999,-67.663979 -0.09252,-20.597652 1.835546,-41.180157 3.9999999,-61.663979 z"
             sodipodi:nodetypes="acccccaaccaa" /></g><g
           id="g286"
           transform="rotate(-153.52941,122.81718,100.02928)"
           style="fill:#f1c40f;stroke:#f1c40f;stroke-width:2.23796;stroke-dasharray:none"><circle
             cx="0"
             cy="0"
             style="fill:#f1c40f;stroke:#f1c40f;stroke-width:2.23796;stroke-dasharray:none"
             id="circle285"
             r="10" /><path
             id="path286"
             style="fill:#f1c40f;stroke:#f1c40f;stroke-width:2.33355;stroke-linecap:round;stroke-linejoin:round;stroke-dasharray:none;paint-order:markers fill stroke"
             transform="matrix(0,1.1469868,-0.80187926,0,-23.405638,0)"
             d="m -9.2853851,-61.663979 c 0.424832,-4.020497 1.761795,-12 1.761795,-12 l 3.761795,12 3.7617951,-12 3.7617951,12 3.761795,-12 c 0,0 1.336963,7.979503 1.761795,12 C 11.449839,-41.180157 13.377906,-20.597652 13.285385,0 13.183799,22.615926 8.2853851,67.663979 8.2853851,67.663979 H -8.2853851 c 0,0 -4.8984139,-45.048053 -4.9999999,-67.663979 -0.09252,-20.597652 1.835546,-41.180157 3.9999999,-61.663979 z"
             sodipodi:nodetypes="acccccaaccaa" /></g><g
           id="g287"
           transform="rotate(-132.35294,153.76897,56.188631)"
           style="fill:#f1c40f;stroke:#f1c40f;stroke-width:2.23796;stroke-dasharray:none"><circle
             cx="0"
             cy="0"
             style="fill:#f1c40f;stroke:#f1c40f;stroke-width:2.23796;stroke-dasharray:none"
             id="circle286"
             r="10" /><path
             id="path287"
             style="fill:#f1c40f;stroke:#f1c40f;stroke-width:2.33355;stroke-linecap:round;stroke-linejoin:round;stroke-dasharray:none;paint-order:markers fill stroke"
             transform="matrix(0,1.1469868,-0.80187926,0,-23.405638,0)"
             d="m -9.2853851,-61.663979 c 0.424832,-4.020497 1.761795,-12 1.761795,-12 l 3.761795,12 3.7617951,-12 3.7617951,12 3.761795,-12 c 0,0 1.336963,7.979503 1.761795,12 C 11.449839,-41.180157 13.377906,-20.597652 13.285385,0 13.183799,22.615926 8.2853851,67.663979 8.2853851,67.663979 H -8.2853851 c 0,0 -4.8984139,-45.048053 -4.9999999,-67.663979 -0.09252,-20.597652 1.835546,-41.180157 3.9999999,-61.663979 z"
             sodipodi:nodetypes="acccccaaccaa" /></g><g
           id="g288"
           transform="rotate(-111.17647,190.28989,4.4598)"
           style="fill:#f1c40f;stroke:#f1c40f;stroke-width:2.23796;stroke-dasharray:none"><circle
             cx="0"
             cy="0"
             style="fill:#f1c40f;stroke:#f1c40f;stroke-width:2.23796;stroke-dasharray:none"
             id="circle287"
             r="10" /><path
             id="path288"
             style="fill:#f1c40f;stroke:#f1c40f;stroke-width:2.33355;stroke-linecap:round;stroke-linejoin:round;stroke-dasharray:none;paint-order:markers fill stroke"
             transform="matrix(0,1.1469868,-0.80187926,0,-23.405638,0)"
             d="m -9.2853851,-61.663979 c 0.424832,-4.020497 1.761795,-12 1.761795,-12 l 3.761795,12 3.7617951,-12 3.7617951,12 3.761795,-12 c 0,0 1.336963,7.979503 1.761795,12 C 11.449839,-41.180157 13.377906,-20.597652 13.285385,0 13.183799,22.615926 8.2853851,67.663979 8.2853851,67.663979 H -8.2853851 c 0,0 -4.8984139,-45.048053 -4.9999999,-67.663979 -0.09252,-20.597652 1.835546,-41.180157 3.9999999,-61.663979 z"
             sodipodi:nodetypes="acccccaaccaa" /></g><defs
           id="defs290" /></g><path
         sodipodi:type="star"
         style="font-variation-settings:normal;vector-effect:none;fill:#f39c12;fill-opacity:1;stroke:none;stroke-width:3.88619;stroke-linecap:round;stroke-linejoin:round;stroke-miterlimit:4;stroke-dasharray:none;stroke-dashoffset:0;stroke-opacity:1;-inkscape-stroke:none;paint-order:markers fill stroke"
         id="path291"
         inkscape:flatsided="false"
         sodipodi:sides="15"
         sodipodi:cx="-43.500492"
         sodipodi:cy="332.53711"
         sodipodi:r1="17.40691"
         sodipodi:r2="15.721858"
         sodipodi:arg1="-1.5707963"
         sodipodi:arg2="-1.3613568"
         inkscape:rounded="0.36"
         inkscape:randomized="0"
         d="m -43.500492,315.1302 c 1.38495,0 1.914073,1.74066 3.268758,2.02861 1.354686,0.28795 2.546056,-1.08701 3.81127,-0.5237 1.265215,0.56331 1.0406,2.3687 2.161048,3.18275 1.120448,0.81405 2.768067,0.0425 3.694779,1.07175 0.926713,1.02922 -0.0128,2.58717 0.679673,3.78657 0.692475,1.1994 2.511454,1.16473 2.939427,2.4819 0.427973,1.31716 -1.06399,2.35829 -0.919223,3.73565 0.144767,1.37736 1.820588,2.08553 1.675821,3.4629 -0.144767,1.37736 -1.931205,1.72164 -2.359178,3.0388 -0.427973,1.31717 0.814926,2.64573 0.122451,3.84513 -0.692475,1.19941 -2.464497,0.78731 -3.391209,1.81653 -0.926712,1.02921 -0.331644,2.74845 -1.452093,3.56251 -1.120447,0.81405 -2.571654,-0.28317 -3.836869,0.28014 -1.265214,0.56331 -1.42087,2.37595 -2.775555,2.6639 -1.354686,0.28794 -2.234151,-1.30467 -3.6191,-1.30467 -1.38495,0 -2.264415,1.59261 -3.619101,1.30467 -1.354685,-0.28795 -1.510341,-2.10059 -2.775555,-2.6639 -1.265215,-0.56331 -2.716421,0.53391 -3.836869,-0.28014 -1.120448,-0.81406 -0.52538,-2.5333 -1.452093,-3.56251 -0.926712,-1.02922 -2.698734,-0.61712 -3.391209,-1.81653 -0.692474,-1.1994 0.550424,-2.52796 0.122451,-3.84513 -0.427973,-1.31717 -2.214411,-1.66144 -2.359177,-3.0388 -0.144767,-1.37737 1.531054,-2.08554 1.675821,-3.4629 0.144767,-1.37737 -1.347196,-2.41849 -0.919223,-3.73565 0.427973,-1.31717 2.246952,-1.2825 2.939427,-2.4819 0.692475,-1.1994 -0.247039,-2.75735 0.679673,-3.78657 0.926712,-1.02922 2.574331,-0.2577 3.694779,-1.07175 1.120448,-0.81405 0.895834,-2.61944 2.161048,-3.18275 1.265215,-0.56331 2.456585,0.81165 3.81127,0.5237 1.354686,-0.28795 1.883808,-2.02861 3.268758,-2.02861 z"
         transform="matrix(0.38598277,0,0,0.38598189,396.26395,756.6591)" /></g></g></svg>
