<?xml version="1.0" encoding="UTF-8" standalone="no"?>
<!-- Created with Inkscape (http://www.inkscape.org/) -->

<svg
   width="240.99438mm"
   height="117.54149mm"
   viewBox="0 0 240.99438 117.54149"
   version="1.1"
   id="svg1"
   xml:space="preserve"
   inkscape:version="1.4.1-rc (832c77b156, 2025-02-28)"
   sodipodi:docname="project-logo-light.svg"
   xmlns:inkscape="http://www.inkscape.org/namespaces/inkscape"
   xmlns:sodipodi="http://sodipodi.sourceforge.net/DTD/sodipodi-0.dtd"
   xmlns:xlink="http://www.w3.org/1999/xlink"
   xmlns="http://www.w3.org/2000/svg"
   xmlns:svg="http://www.w3.org/2000/svg"><sodipodi:namedview
     id="namedview1"
     pagecolor="#e1e1e1"
     bordercolor="#666666"
     borderopacity="1.0"
     inkscape:showpageshadow="2"
     inkscape:pageopacity="0.0"
     inkscape:pagecheckerboard="0"
     inkscape:deskcolor="#ede0e0"
     inkscape:document-units="mm"
     showborder="false"
     inkscape:zoom="1.0948152"
     inkscape:cx="372.20894"
     inkscape:cy="248.90046"
     inkscape:window-width="1920"
     inkscape:window-height="946"
     inkscape:window-x="0"
     inkscape:window-y="0"
     inkscape:window-maximized="1"
     inkscape:current-layer="g311"
     showgrid="false" /><defs
     id="defs1"><inkscape:path-effect
       effect="spiro"
       id="path-effect418"
       is_visible="true"
       lpeversion="1" /><inkscape:path-effect
       effect="spiro"
       id="path-effect416"
       is_visible="true"
       lpeversion="1" /><inkscape:path-effect
       effect="spiro"
       id="path-effect394"
       is_visible="true"
       lpeversion="1" /><inkscape:path-effect
       effect="fillet_chamfer"
       id="path-effect352"
       is_visible="true"
       lpeversion="1"
       nodesatellites_param="F,0,1,1,0,2.9104166,0,1 @ F,0,0,1,0,0,0,1 @ F,0,0,1,0,0,0,1 @ F,0,0,1,0,0,0,1"
       radius="11"
       unit="px"
       method="auto"
       mode="F"
       chamfer_steps="1"
       flexible="false"
       use_knot_distance="true"
       apply_no_radius="true"
       apply_with_radius="true"
       only_selected="true"
       hide_knots="false" /><inkscape:path-effect
       effect="spiro"
       id="path-effect350"
       is_visible="true"
       lpeversion="1" /><inkscape:path-effect
       effect="spiro"
       id="path-effect96"
       is_visible="true"
       lpeversion="1" /><inkscape:path-effect
       effect="spiro"
       id="path-effect95"
       is_visible="true"
       lpeversion="1" /><inkscape:path-effect
       effect="spiro"
       id="path-effect92"
       is_visible="true"
       lpeversion="1" /><inkscape:path-effect
       effect="fillet_chamfer"
       id="path-effect35"
       is_visible="true"
       lpeversion="1"
       nodesatellites_param="F,0,1,1,0,2.9104166,0,1 @ F,0,0,1,0,0,0,1 @ F,0,0,1,0,0,0,1 @ F,0,0,1,0,0,0,1"
       radius="11"
       unit="px"
       method="auto"
       mode="F"
       chamfer_steps="1"
       flexible="false"
       use_knot_distance="true"
       apply_no_radius="true"
       apply_with_radius="true"
       only_selected="true"
       hide_knots="false" /><inkscape:path-effect
       effect="spiro"
       id="path-effect34"
       is_visible="true"
       lpeversion="1" /><pattern
       id="tecky"
       width="12"
       height="12"
       patternUnits="userSpaceOnUse"
       patternTransform="scale(0.65)"><rect
         x="0"
         y="0"
         width="12"
         height="12"
         fill="white"
         id="rect28" /><circle
         id="kruh"
         cx="0"
         cy="0"
         r="1.75"
         fill="black" /><use
         xlink:href="#kruh"
         x="6"
         y="6"
         id="use28" /><use
         xlink:href="#kruh"
         x="0"
         y="12"
         id="use29" /><use
         xlink:href="#kruh"
         x="12"
         y="0"
         id="use30" /><use
         xlink:href="#kruh"
         x="12"
         y="12"
         id="use31" /></pattern><pattern
       id="tecky-2"
       width="12"
       height="12"
       patternUnits="userSpaceOnUse"
       patternTransform="scale(0.65)"><rect
         x="0"
         y="0"
         width="12"
         height="12"
         fill="white"
         id="rect28-3" /><circle
         id="kruh-3"
         cx="0"
         cy="0"
         r="1.75"
         fill="black" /><use
         xlink:href="#kruh-3"
         x="6"
         y="6"
         id="use28-4" /><use
         xlink:href="#kruh-3"
         x="0"
         y="12"
         id="use29-1" /><use
         xlink:href="#kruh-3"
         x="12"
         y="0"
         id="use30-1" /><use
         xlink:href="#kruh-3"
         x="12"
         y="12"
         id="use31-3" /></pattern><pattern
       id="tecky-4"
       width="12"
       height="12"
       patternUnits="userSpaceOnUse"
       patternTransform="scale(0.65)"><rect
         x="0"
         y="0"
         width="12"
         height="12"
         fill="white"
         id="rect28-8" /><circle
         id="kruh-4"
         cx="0"
         cy="0"
         r="1.75"
         fill="black" /><use
         xlink:href="#kruh-4"
         x="6"
         y="6"
         id="use28-9" /><use
         xlink:href="#kruh-4"
         x="0"
         y="12"
         id="use29-9" /><use
         xlink:href="#kruh-4"
         x="12"
         y="0"
         id="use30-2" /><use
         xlink:href="#kruh-4"
         x="12"
         y="12"
         id="use31-5" /></pattern></defs><g
     inkscape:label="Vrstva 1"
     inkscape:groupmode="layer"
     id="layer1"
     transform="translate(-1225.984,-1109.291)"><path
       id="rect34"
       style="opacity:1;vector-effect:none;fill:#27ae60;stroke-width:2.17649;stroke-linecap:round;stroke-linejoin:round;paint-order:markers fill stroke"
       d="m -141.26133,485.60731 c 2.98035,6.18435 4.9518,12.8546 5.80423,19.66678 1.62603,12.99444 -0.90304,26.47695 -7.12785,37.99872 -6.51332,-11.41038 -9.1834,-24.97085 -7.48201,-37.99872 0.89441,-6.84866 2.9705,-13.54068 6.10084,-19.69701 0.72847,-1.43265 2.00704,-1.41764 2.70479,0.0302 z"
       sodipodi:nodetypes="cacac"
       transform="matrix(0.68918446,0,0,0.68918446,-205.64433,280.27535)"
       inkscape:original-d="m -142.58495,483.01559 c 0,0 6.64325,14.48295 7.12785,22.2585 0.80161,12.8622 -7.12785,37.99872 -7.12785,37.99872 0,0 -8.31964,-25.11648 -7.48201,-37.99872 0.50788,-7.81096 7.48201,-22.2585 7.48201,-22.2585 z"
       inkscape:path-effect="#path-effect34;#path-effect35" /><path
       id="path91"
       style="font-variation-settings:normal;opacity:1;fill:#27ae60;fill-opacity:1;stroke:#27ae60;stroke-width:2.97346;stroke-linecap:round;stroke-linejoin:round;stroke-miterlimit:4;stroke-dasharray:none;stroke-dashoffset:0;stroke-opacity:1;paint-order:markers fill stroke;stop-color:#000000;stop-opacity:1"
       d="m -182.43272,471.56272 c 13.20232,6.98924 24.26523,17.95698 31.36828,31.09842 4.36553,8.07673 7.25377,16.94899 8.47949,26.04784 h -6.02217 c -4.99743,-0.66422 -9.7666,-2.94793 -13.4172,-6.4248 -3.65059,-3.47688 -6.16394,-8.12913 -7.07083,-13.08827 -1.09766,-6.00227 0.11396,-12.2193 -0.72218,-18.26355 -1.09068,-7.88426 -5.84524,-15.1844 -12.61539,-19.36964 z"
       sodipodi:nodetypes="caccssc"
       transform="matrix(0.16724532,0,0,0.16906818,-250.67597,559.57664)"
       inkscape:original-d="m -182.43272,471.56272 c 0,0 23.65532,18.59357 31.36828,31.09842 4.80158,7.7847 8.47949,26.04784 8.47949,26.04784 h -6.02217 c 0,0 -19.51968,-11.03686 -20.48803,-19.51307 -0.74171,-6.49237 -1.43669,-10.09903 -0.72218,-18.26355 0.71451,-8.16452 -12.61539,-19.36964 -12.61539,-19.36964 z"
       inkscape:path-effect="#path-effect92" /><g
       id="g96"
       transform="matrix(0.52832277,0,0,0.56735937,-245.15818,341.01149)"
       style="stroke-width:1.82651"><path
         style="font-variation-settings:normal;opacity:1;vector-effect:none;fill:none;fill-opacity:1;stroke:#27ae60;stroke-width:2.73976;stroke-linecap:round;stroke-linejoin:round;stroke-miterlimit:4;stroke-dasharray:none;stroke-dashoffset:0;stroke-opacity:1;-inkscape-stroke:none;stop-color:#000000;stop-opacity:1"
         d="m -45.055689,418.7364 c 1.614934,-1.38292 3.158594,-2.84907 4.622808,-4.39068 2.65971,-2.8003 5.056689,-5.85003 7.149218,-9.09611"
         id="path95"
         transform="rotate(-37.025775,161.46933,451.15563)"
         sodipodi:nodetypes="csc"
         inkscape:original-d="m -45.055689,418.7364 c 1.388938,-0.64021 3.005873,-2.48523 4.622808,-4.39068 1.616932,-1.90545 5.593947,-7.18171 7.149218,-9.09611"
         inkscape:path-effect="#path-effect95" /><path
         id="rect95"
         style="opacity:1;vector-effect:none;fill:#27ae60;stroke:#27ae60;stroke-width:5.67314;stroke-linecap:round;stroke-linejoin:round;paint-order:markers fill stroke"
         d="m -160.84352,651.12807 c 1.57967,-3.50026 3.88144,-6.67271 6.71886,-9.26041 2.83742,2.5877 5.13919,5.76015 6.71886,9.26041 1.1853,2.62641 1.96935,5.45902 2.05242,8.33932 0.0831,2.88029 -0.5586,5.81141 -2.05242,8.27545 -1.52995,2.52365 -3.94312,4.49986 -6.71886,5.50227 -2.77574,-1.00241 -5.18891,-2.97862 -6.71886,-5.50227 -1.49382,-2.46404 -2.13548,-5.39516 -2.05242,-8.27545 0.0831,-2.8803 0.86712,-5.71291 2.05242,-8.33932 z"
         sodipodi:nodetypes="acaacaa"
         transform="matrix(0.47023885,0,0,0.49597318,50.817395,197.8696)"
         inkscape:original-d="m -160.84352,651.12807 c 1.17732,-3.62742 6.71886,-9.26041 6.71886,-9.26041 0,0 5.54154,5.63299 6.71886,9.26041 1.70969,5.26775 2.37052,11.60948 0,16.61477 -1.23905,2.61621 -6.71886,5.50227 -6.71886,5.50227 0,0 -5.47981,-2.88606 -6.71886,-5.50227 -2.37052,-5.00529 -1.70969,-11.34702 0,-16.61477 z"
         inkscape:path-effect="#path-effect96" /></g><g
       id="g87"
       transform="matrix(0.26458333,0,0,0.26458333,-49.29183,254.685)" /><g
       id="g311"
       transform="translate(927.72444,255.11727)"
       inkscape:export-filename="transparent light.png"
       inkscape:export-xdpi="210.79333"
       inkscape:export-ydpi="210.79333"><use
         x="0"
         y="0"
         xlink:href="#rect34"
         id="use268"
         transform="rotate(26.707641,-628.96103,2252.3633)"
         inkscape:transform-center-x="-13.079507"
         inkscape:transform-center-y="-25.642527" /><path
         style="fill:none;stroke:#ffffff;stroke-width:1.5;stroke-linecap:round;stroke-linejoin:round;stroke-dasharray:none;stroke-opacity:1"
         d="m 299.00958,855.4675 1.51043,-0.5438 1.32918,1.0875 2.23545,-0.6645 1.81252,0.9062 1.69168,-0.06 5.61882,4.8334 1.81251,0.5438 2.83961,3.1417 3.92713,3.6854 0.54376,1.6313 1.20834,0.6042 0.18126,1.3896 3.98753,4.0479 3.80629,1.1479 0.72501,2.1751 5.19591,1.3896 1.02709,0.9062 1.32918,-0.6041 5.98132,1.1479 2.05419,3.2021 -0.0604,1.9938 1.32918,-0.3625 0.24167,0.9062 -0.24167,1.148 2.23545,1.2687 0.78542,1.3896 -0.3625,0.8459 2.29586,2.2354 3.20212,0.6646 3.80629,1.2084 v 3.8667 l -0.48334,2.9604 -1.57085,1.9334 -3.38337,-0.5438 -4.04796,1.0271 -3.86671,5.3772 5.19589,4.8333 4.77297,0.1813 -1.45002,4.35 0.60417,2.1147 2.7792,3.2021 3.38338,-0.6646 0.18125,4.5313 1.3896,-1.8125 7.00841,0.4229 -0.30209,2.6583 5.61882,1.0876 4.16879,-3.0209 3.44379,0.9667 2.71878,-0.1209 3.38337,2.1751 5.37714,-1.2688 13.11057,3.8063 2.65836,2.4771 8.3376,-1.0875 2.65836,2.7792 6.948,3.2625 5.61881,1.3896 1.3896,4.1084 3.62504,-0.6646 2.65836,-3.0813 0.48334,-2.7792 3.5042,-2.7188 0.78543,2.2959 3.56462,-0.1812 3.32296,-3.0813 -1.63127,-5.9813 6.22299,-0.3021 6.04173,1.6312 3.20212,-6.0417 3.68546,-9.7272 -3.26254,-7.2501 6.82717,-1.7521 6.76675,6.223 0.72499,4.1084 2.11462,2.2354 4.10837,-0.9062 2.90003,1.9937 5.86049,0.6646 3.92713,3.9876 1.7521,-2.5376 6.22298,-3.8062 2.90005,-3.2626 3.02086,-0.4229 4.59171,10.2709 4.77297,-2.9 2.71879,3.4438 2.23544,8.4584 2.41669,0.2417 1.14794,-0.6646 1.81252,0.3021 2.7792,-1.3292"
         id="path268"
         sodipodi:nodetypes="ccccccccccccccccccccccccccccccccccccccccccccccccccccccccccccccccccccccccccccccccccccccccccccc" /><g
         id="text269"
         style="font-size:14.8191px;line-height:1;font-family:'Source Sans 3';-inkscape-font-specification:'Source Sans 3, ';text-align:end;letter-spacing:0px;word-spacing:0px;text-anchor:end;fill:#ffffff;stroke-width:0.0999997;stroke-linecap:round;paint-order:markers fill stroke"
         aria-label="PFLANZEN&#10;AN DER GRENZE"><path
           d="m 465.1423,951.0788 h 1.22999 v -3.85297 h 1.60046 c 2.13395,0 3.58622,-0.96324 3.58622,-3.00828 0,-2.13395 -1.46709,-2.86008 -3.64549,-2.86008 h -2.77118 z m 1.22999,-4.86067 v -3.86778 h 1.39299 c 1.7042,0 2.56371,0.45939 2.56371,1.8672 0,1.37818 -0.81505,2.00058 -2.50443,2.00058 z m 7.15762,4.86067 h 1.22999 v -4.35682 h 3.70477 v -1.03734 h -3.70477 v -3.28984 h 4.37163 v -1.03733 h -5.60162 z m 7.32063,0 h 5.48307 v -1.05216 h -4.25308 v -8.66917 h -1.22999 z m 8.92105,-5.43861 c 0.35566,-1.0818 0.66686,-2.14877 0.96324,-3.27502 h 0.0593 c 0.3112,1.12625 0.6224,2.19322 0.97806,3.27502 l 0.45939,1.48191 h -2.91936 z m -2.96382,5.43861 h 1.25962 l 0.93361,-2.96382 h 3.54176 l 0.91879,2.96382 h 1.3189 l -3.28985,-9.72133 h -1.39299 z m 9.35083,0 h 1.17071 v -5.08296 c 0,-1.03733 -0.0741,-2.07467 -0.16301,-3.05273 h 0.0593 c 0.3112,0.71132 0.68168,1.43745 1.05215,2.08949 l 3.45285,6.0462 h 1.34854 v -9.72133 h -1.18553 v 5.05331 c 0,1.0077 0.0889,2.07467 0.16301,3.08237 h -0.0593 c -0.32602,-0.71131 -0.66686,-1.43745 -1.03734,-2.08949 l -3.45285,-6.04619 h -1.34854 z m 8.92109,0 h 6.69824 v -1.05216 h -5.17187 l 5.12741,-7.94304 v -0.72613 h -6.19439 v 1.03733 h 4.6532 l -5.11259,7.94304 z m 8.65435,0 h 5.74981 v -1.05216 h -4.51983 v -3.52695 h 3.68996 v -1.05215 h -3.68996 v -3.05274 h 4.37164 v -1.03733 h -5.60162 z m 7.80964,0 h 1.17071 v -5.08296 c 0,-1.03733 -0.0741,-2.07467 -0.16301,-3.05273 h 0.0593 c 0.3112,0.71132 0.68168,1.43745 1.05215,2.08949 l 3.45285,6.0462 h 1.34854 v -9.72133 h -1.18553 v 5.05331 c 0,1.0077 0.0889,2.07467 0.16301,3.08237 h -0.0593 c -0.32602,-0.71131 -0.66686,-1.43745 -1.03734,-2.08949 l -3.45285,-6.04619 h -1.34854 z"
           id="path460" /><path
           d="m 433.1035,960.45929 c 0.35566,-1.0818 0.66686,-2.14877 0.96324,-3.27502 h 0.0593 c 0.3112,1.12625 0.6224,2.19322 0.97806,3.27502 l 0.45939,1.48191 h -2.91936 z m -2.96382,5.43861 h 1.25962 l 0.93361,-2.96382 h 3.54176 l 0.91879,2.96382 h 1.3189 l -3.28985,-9.72133 h -1.39299 z m 9.35083,0 h 1.17071 v -5.08295 c 0,-1.03734 -0.0741,-2.07468 -0.16301,-3.05274 h 0.0593 c 0.3112,0.71132 0.68168,1.43745 1.05215,2.08949 l 3.45285,6.0462 h 1.34854 v -9.72133 h -1.18553 v 5.05331 c 0,1.0077 0.0889,2.07467 0.16301,3.08237 h -0.0593 c -0.32602,-0.71131 -0.66686,-1.43745 -1.03734,-2.08949 l -3.45285,-6.04619 h -1.34854 z m 12.55175,0 h 2.48961 c 2.93418,0 4.53465,-1.80793 4.53465,-4.90513 0,-3.08237 -1.60047,-4.8162 -4.59392,-4.8162 h -2.43034 z m 1.22999,-1.0077 v -7.70593 h 1.11143 c 2.26732,0 3.4084,1.36335 3.4084,3.8085 0,2.45998 -1.14108,3.89743 -3.4084,3.89743 z m 7.88376,1.0077 h 5.74981 v -1.05216 h -4.51983 v -3.52695 h 3.68996 v -1.05215 h -3.68996 v -3.05274 h 4.37164 v -1.03733 h -5.60162 z m 7.80964,0 h 1.22999 v -4.10489 h 1.76347 l 2.34142,4.10489 h 1.393 l -2.47479,-4.23827 c 1.33371,-0.32602 2.19322,-1.2448 2.19322,-2.75635 0,-2.0154 -1.42263,-2.72671 -3.40839,-2.72671 h -3.03792 z m 1.22999,-5.11259 v -3.61586 h 1.6301 c 1.51155,0 2.35624,0.45939 2.35624,1.73383 0,1.25962 -0.84469,1.88203 -2.35624,1.88203 z m 13.98918,5.29042 c 1.30409,0 2.37106,-0.47422 2.99346,-1.12626 v -4.09007 h -3.1861 v 1.02252 h 2.05985 v 2.53407 c -0.3853,0.35566 -1.05215,0.57794 -1.74865,0.57794 -2.07468,0 -3.23057,-1.54118 -3.23057,-3.98634 0,-2.41551 1.25963,-3.92706 3.21575,-3.92706 0.97806,0 1.60046,0.37048 2.08949,0.88915 l 0.68168,-0.7706 c -0.56313,-0.60758 -1.45227,-1.20034 -2.80081,-1.20034 -2.57852,0 -4.46055,1.91166 -4.46055,5.03849 0,3.17129 1.82275,5.0385 4.38645,5.0385 z m 5.32004,-0.17783 h 1.22999 v -4.10489 h 1.76347 l 2.34142,4.10489 h 1.393 l -2.47479,-4.23827 c 1.33372,-0.32602 2.19322,-1.2448 2.19322,-2.75635 0,-2.0154 -1.42263,-2.72671 -3.40839,-2.72671 h -3.03792 z m 1.22999,-5.11259 v -3.61586 h 1.6301 c 1.51155,0 2.35624,0.45939 2.35624,1.73383 0,1.25962 -0.84469,1.88203 -2.35624,1.88203 z m 7.20206,5.11259 h 5.74981 v -1.05216 h -4.51983 v -3.52695 h 3.68996 v -1.05215 h -3.68996 v -3.05274 h 4.37164 v -1.03733 h -5.60162 z m 7.80964,0 h 1.17071 v -5.08295 c 0,-1.03734 -0.0741,-2.07468 -0.16301,-3.05274 h 0.0593 c 0.3112,0.71132 0.68168,1.43745 1.05215,2.08949 l 3.45285,6.0462 h 1.34854 v -9.72133 h -1.18553 v 5.05331 c 0,1.0077 0.0889,2.07467 0.16301,3.08237 h -0.0593 c -0.32602,-0.71131 -0.66686,-1.43745 -1.03734,-2.08949 l -3.45285,-6.04619 h -1.34854 z m 8.92109,0 h 6.69823 v -1.05216 H 516.194 l 5.12741,-7.94304 v -0.72613 h -6.19438 v 1.03733 h 4.6532 l -5.11259,7.94304 z m 8.65434,0 h 5.74982 v -1.05216 h -4.51983 v -3.52695 h 3.68996 v -1.05215 h -3.68996 v -3.05274 h 4.37163 v -1.03733 h -5.60162 z"
           id="path461" /></g><g
         id="text271"
         style="font-size:14.8191px;line-height:1;font-family:'Source Sans 3';-inkscape-font-specification:'Source Sans 3, ';letter-spacing:0px;word-spacing:0px;fill:#ffffff;stroke-width:0.0999997;stroke-linecap:round;paint-order:markers fill stroke"
         aria-label="ROSTLINY PODÉL&#10;HRANICE"><path
           d="m 407.67765,901.73895 h 1.22999 v -4.10489 h 1.76347 l 2.34142,4.10489 h 1.39299 l -2.47479,-4.23826 c 1.33372,-0.32602 2.19323,-1.2448 2.19323,-2.75635 0,-2.0154 -1.42263,-2.72672 -3.40839,-2.72672 h -3.03792 z m 1.22999,-5.11259 v -3.61586 h 1.6301 c 1.51155,0 2.35624,0.45939 2.35624,1.73384 0,1.25962 -0.84469,1.88202 -2.35624,1.88202 z m 10.78828,5.29042 c 2.44515,0 4.16416,-1.95612 4.16416,-5.08295 0,-3.09719 -1.71901,-4.99404 -4.16416,-4.99404 -2.44515,0 -4.14935,1.88203 -4.14935,4.99404 0,3.12683 1.7042,5.08295 4.14935,5.08295 z m 0,-1.08179 c -1.73384,0 -2.87491,-1.57083 -2.87491,-4.00116 0,-2.41551 1.14107,-3.91224 2.87491,-3.91224 1.73383,0 2.8749,1.49673 2.8749,3.91224 0,2.43033 -1.14107,4.00116 -2.8749,4.00116 z m 8.95073,1.08179 c 2.05985,0 3.30466,-1.22998 3.30466,-2.77117 0,-1.43745 -0.84469,-2.10431 -2.00058,-2.59334 l -1.37818,-0.59277 c -0.77059,-0.32602 -1.61528,-0.68168 -1.61528,-1.61528 0,-0.87433 0.72614,-1.42263 1.80793,-1.42263 0.85951,0 1.60046,0.35566 2.20805,0.88914 l 0.66686,-0.80023 c -0.68168,-0.68168 -1.68938,-1.17071 -2.87491,-1.17071 -1.77829,0 -3.05273,1.09662 -3.05273,2.57853 0,1.40781 1.03733,2.10431 1.97094,2.50443 l 1.39299,0.60758 c 0.91879,0.41493 1.61528,0.72613 1.61528,1.71901 0,0.94843 -0.75577,1.58565 -2.03021,1.58565 -1.03734,0 -2.03022,-0.44458 -2.72672,-1.17071 l -0.6965,0.80023 c 0.84469,0.90397 2.0154,1.45227 3.4084,1.45227 z m 6.93531,-0.17783 h 1.2448 v -8.68399 h 2.93418 v -1.03734 h -7.11316 v 1.03734 h 2.93418 z m 5.92763,0 h 5.48307 v -1.05215 h -4.25309 v -8.66918 h -1.22998 z m 7.20205,0 h 1.22999 v -9.72133 h -1.22999 z m 3.8974,0 h 1.17071 V 896.656 c 0,-1.03734 -0.0741,-2.07467 -0.16301,-3.05273 h 0.0593 c 0.3112,0.71131 0.68168,1.43745 1.05216,2.08949 l 3.45285,6.04619 h 1.34853 v -9.72133 h -1.18552 v 5.05332 c 0,1.00769 0.0889,2.07467 0.16301,3.08237 h -0.0593 c -0.32602,-0.71132 -0.66686,-1.43745 -1.03734,-2.08949 l -3.45285,-6.0462 h -1.34854 z m 11.15878,0 h 1.2448 v -3.76405 l 2.91936,-5.95728 h -1.28926 l -1.2448,2.74154 c -0.29638,0.71131 -0.63722,1.39299 -0.97806,2.11913 h -0.0593 c -0.32602,-0.72614 -0.6224,-1.40782 -0.9336,-2.11913 l -1.25963,-2.74154 h -1.3189 l 2.91937,5.95728 z m 8.44687,0 h 1.22998 v -3.85296 h 1.60046 c 2.13395,0 3.58623,-0.96324 3.58623,-3.00828 0,-2.13395 -1.4671,-2.86009 -3.6455,-2.86009 h -2.77117 z m 1.22998,-4.86066 v -3.86779 h 1.393 c 1.70419,0 2.5637,0.45939 2.5637,1.86721 0,1.37818 -0.81505,2.00058 -2.50443,2.00058 z m 10.74385,5.03849 c 2.44515,0 4.16417,-1.95612 4.16417,-5.08295 0,-3.09719 -1.71902,-4.99404 -4.16417,-4.99404 -2.44515,0 -4.14935,1.88203 -4.14935,4.99404 0,3.12683 1.7042,5.08295 4.14935,5.08295 z m 0,-1.08179 c -1.73384,0 -2.87491,-1.57083 -2.87491,-4.00116 0,-2.41551 1.14107,-3.91224 2.87491,-3.91224 1.73383,0 2.8749,1.49673 2.8749,3.91224 0,2.43033 -1.14107,4.00116 -2.8749,4.00116 z m 6.25365,0.90396 h 2.48961 c 2.93418,0 4.53464,-1.80793 4.53464,-4.90512 0,-3.08237 -1.60046,-4.81621 -4.59392,-4.81621 h -2.43033 z m 1.22999,-1.0077 v -7.70593 h 1.11143 c 2.26732,0 3.40839,1.36336 3.40839,3.80851 0,2.45997 -1.14107,3.89742 -3.40839,3.89742 z m 7.88376,1.0077 h 5.74981 v -1.05215 h -4.51983 v -3.52695 h 3.68996 v -1.05216 h -3.68996 v -3.05273 h 4.37164 v -1.03734 h -5.60162 z m 1.82275,-10.46228 h 1.09661 l 2.41551,-1.86721 -0.0593,-0.13337 h -1.49673 z m 5.98689,10.46228 h 5.48307 v -1.05215 h -4.25308 v -8.66918 h -1.22999 z"
           id="path458" /><path
           d="m 407.67765,916.55805 h 1.22999 v -4.5791 h 4.51982 v 4.5791 h 1.24481 v -9.72133 h -1.24481 v 4.07526 h -4.51982 v -4.07526 h -1.22999 z m 9.66203,0 h 1.22999 v -4.10489 h 1.76347 l 2.34142,4.10489 h 1.39299 l -2.47478,-4.23826 c 1.33371,-0.32602 2.19322,-1.2448 2.19322,-2.75635 0,-2.0154 -1.42263,-2.72672 -3.40839,-2.72672 h -3.03792 z m 1.22999,-5.11259 v -3.61586 h 1.6301 c 1.51155,0 2.35624,0.4594 2.35624,1.73384 0,1.25962 -0.84469,1.88202 -2.35624,1.88202 z m 8.81732,-0.32602 c 0.35565,-1.08179 0.66685,-2.14877 0.96324,-3.27502 h 0.0593 c 0.3112,1.12625 0.62241,2.19323 0.97806,3.27502 l 0.4594,1.48191 h -2.91937 z m -2.96382,5.43861 h 1.25962 l 0.9336,-2.96382 h 3.54177 l 0.91878,2.96382 h 1.3189 l -3.28984,-9.72133 h -1.39299 z m 9.35083,0 h 1.17071 v -5.08295 c 0,-1.03734 -0.0741,-2.07467 -0.16301,-3.05273 h 0.0593 c 0.3112,0.71131 0.68168,1.43745 1.05216,2.08949 l 3.45285,6.04619 h 1.34854 v -9.72133 h -1.18553 v 5.05332 c 0,1.0077 0.0889,2.07467 0.16301,3.08237 h -0.0593 c -0.32602,-0.71132 -0.66686,-1.43745 -1.03733,-2.08949 l -3.45285,-6.0462 H 433.774 Z m 9.58795,0 h 1.22998 v -9.72133 h -1.22998 z m 7.58735,0.17783 c 1.25963,0 2.16359,-0.50385 2.949,-1.39299 l -0.63722,-0.71132 c -0.6224,0.66686 -1.3189,1.02252 -2.22286,1.02252 -1.88203,0 -3.06756,-1.54119 -3.06756,-3.98634 0,-2.41551 1.22999,-3.92706 3.05274,-3.92706 0.80023,0 1.46709,0.32602 1.98576,0.87433 l 0.66686,-0.75578 c -0.56313,-0.66686 -1.51155,-1.20035 -2.66744,-1.20035 -2.47479,0 -4.31236,1.91167 -4.31236,5.0385 0,3.17129 1.82275,5.03849 4.25308,5.03849 z m 4.77174,-0.17783 h 5.74982 v -1.05215 h -4.51983 v -3.52695 h 3.68996 v -1.05216 h -3.68996 v -3.05273 h 4.37163 v -1.03734 h -5.60162 z"
           id="path459" /></g><path
         style="font-variation-settings:normal;vector-effect:none;fill:none;fill-opacity:1;stroke:#27ae60;stroke-width:1.5;stroke-linecap:round;stroke-linejoin:round;stroke-miterlimit:4;stroke-dasharray:none;stroke-dashoffset:0;stroke-opacity:1;-inkscape-stroke:none;stop-color:#000000"
         d="M 379.4735,970.9652 V 883.2415"
         id="path271"
         sodipodi:nodetypes="cc" /><g
         id="g290"
         transform="matrix(0.11170889,0,0,0.11170856,345.96084,851.4974)"
         style="fill:#f1c40f;stroke:#f1c40f;stroke-width:2.23796;stroke-dasharray:none"><g
           id="g272"
           transform="rotate(-90,237.5375,-62.462498)"
           style="fill:#f1c40f;stroke:#f1c40f;stroke-width:2.23796;stroke-dasharray:none"><circle
             cx="0"
             cy="0"
             style="fill:#f1c40f;stroke:#f1c40f;stroke-width:2.23796;stroke-dasharray:none"
             id="circle271"
             r="10" /><path
             id="path272"
             style="fill:#f1c40f;stroke:#f1c40f;stroke-width:2.33355;stroke-linecap:round;stroke-linejoin:round;stroke-dasharray:none;paint-order:markers fill stroke"
             transform="matrix(0,1.1469868,-0.80187926,0,-23.405638,0)"
             d="m -9.2853851,-61.663979 c 0.424832,-4.020497 1.761795,-12 1.761795,-12 l 3.761795,12 3.7617951,-12 3.7617951,12 3.761795,-12 c 0,0 1.336963,7.979503 1.761795,12 C 11.449839,-41.180157 13.377906,-20.597652 13.285385,0 13.183799,22.615926 8.2853851,67.663979 8.2853851,67.663979 H -8.2853851 c 0,0 -4.8984139,-45.048053 -4.9999999,-67.663979 -0.09252,-20.597652 1.835546,-41.180157 3.9999999,-61.663979 z"
             sodipodi:nodetypes="acccccaaccaa" /></g><g
           id="g273"
           transform="rotate(-68.823529,306.51051,-160.15702)"
           style="fill:#f1c40f;stroke:#f1c40f;stroke-width:2.23796;stroke-dasharray:none"><circle
             cx="0"
             cy="0"
             style="fill:#f1c40f;stroke:#f1c40f;stroke-width:2.23796;stroke-dasharray:none"
             id="circle272"
             r="10" /><path
             id="path273"
             style="fill:#f1c40f;stroke:#f1c40f;stroke-width:2.33355;stroke-linecap:round;stroke-linejoin:round;stroke-dasharray:none;paint-order:markers fill stroke"
             transform="matrix(0,1.1469868,-0.80187926,0,-23.405638,0)"
             d="m -9.2853851,-61.663979 c 0.424832,-4.020497 1.761795,-12 1.761795,-12 l 3.761795,12 3.7617951,-12 3.7617951,12 3.761795,-12 c 0,0 1.336963,7.979503 1.761795,12 C 11.449839,-41.180157 13.377906,-20.597652 13.285385,0 13.183799,22.615926 8.2853851,67.663979 8.2853851,67.663979 H -8.2853851 c 0,0 -4.8984139,-45.048053 -4.9999999,-67.663979 -0.09252,-20.597652 1.835546,-41.180157 3.9999999,-61.663979 z"
             sodipodi:nodetypes="acccccaaccaa" /></g><g
           id="g274"
           transform="rotate(-47.647059,427.2551,-331.1817)"
           style="fill:#f1c40f;stroke:#f1c40f;stroke-width:2.23796;stroke-dasharray:none"><circle
             cx="0"
             cy="0"
             style="fill:#f1c40f;stroke:#f1c40f;stroke-width:2.23796;stroke-dasharray:none"
             id="circle273"
             r="10" /><path
             id="path274"
             style="fill:#f1c40f;stroke:#f1c40f;stroke-width:2.33355;stroke-linecap:round;stroke-linejoin:round;stroke-dasharray:none;paint-order:markers fill stroke"
             transform="matrix(0,1.1469868,-0.80187926,0,-23.405638,0)"
             d="m -9.2853851,-61.663979 c 0.424832,-4.020497 1.761795,-12 1.761795,-12 l 3.761795,12 3.7617951,-12 3.7617951,12 3.761795,-12 c 0,0 1.336963,7.979503 1.761795,12 C 11.449839,-41.180157 13.377906,-20.597652 13.285385,0 13.183799,22.615926 8.2853851,67.663979 8.2853851,67.663979 H -8.2853851 c 0,0 -4.8984139,-45.048053 -4.9999999,-67.663979 -0.09252,-20.597652 1.835546,-41.180157 3.9999999,-61.663979 z"
             sodipodi:nodetypes="acccccaaccaa" /></g><g
           id="g275"
           transform="rotate(-26.470588,725.29839,-753.33517)"
           style="fill:#f1c40f;stroke:#f1c40f;stroke-width:2.23796;stroke-dasharray:none"><circle
             cx="0"
             cy="0"
             style="fill:#f1c40f;stroke:#f1c40f;stroke-width:2.23796;stroke-dasharray:none"
             id="circle274"
             r="10" /><path
             id="path275"
             style="fill:#f1c40f;stroke:#f1c40f;stroke-width:2.33355;stroke-linecap:round;stroke-linejoin:round;stroke-dasharray:none;paint-order:markers fill stroke"
             transform="matrix(0,1.1469868,-0.80187926,0,-23.405638,0)"
             d="m -9.2853851,-61.663979 c 0.424832,-4.020497 1.761795,-12 1.761795,-12 l 3.761795,12 3.7617951,-12 3.7617951,12 3.761795,-12 c 0,0 1.336963,7.979503 1.761795,12 C 11.449839,-41.180157 13.377906,-20.597652 13.285385,0 13.183799,22.615926 8.2853851,67.663979 8.2853851,67.663979 H -8.2853851 c 0,0 -4.8984139,-45.048053 -4.9999999,-67.663979 -0.09252,-20.597652 1.835546,-41.180157 3.9999999,-61.663979 z"
             sodipodi:nodetypes="acccccaaccaa" /></g><g
           id="g276"
           transform="rotate(-5.2941176,3331.9882,-4445.4938)"
           style="fill:#f1c40f;stroke:#f1c40f;stroke-width:2.23796;stroke-dasharray:none"><circle
             cx="0"
             cy="0"
             style="fill:#f1c40f;stroke:#f1c40f;stroke-width:2.23796;stroke-dasharray:none"
             id="circle275"
             r="10" /><path
             id="path276"
             style="fill:#f1c40f;stroke:#f1c40f;stroke-width:2.33355;stroke-linecap:round;stroke-linejoin:round;stroke-dasharray:none;paint-order:markers fill stroke"
             transform="matrix(0,1.1469868,-0.80187926,0,-23.405638,0)"
             d="m -9.2853851,-61.663979 c 0.424832,-4.020497 1.761795,-12 1.761795,-12 l 3.761795,12 3.7617951,-12 3.7617951,12 3.761795,-12 c 0,0 1.336963,7.979503 1.761795,12 C 11.449839,-41.180157 13.377906,-20.597652 13.285385,0 13.183799,22.615926 8.2853851,67.663979 8.2853851,67.663979 H -8.2853851 c 0,0 -4.8984139,-45.048053 -4.9999999,-67.663979 -0.09252,-20.597652 1.835546,-41.180157 3.9999999,-61.663979 z"
             sodipodi:nodetypes="acccccaaccaa" /></g><g
           id="g277"
           transform="rotate(15.882353,-987.77723,1673.0937)"
           style="fill:#f1c40f;stroke:#f1c40f;stroke-width:2.23796;stroke-dasharray:none"><circle
             cx="0"
             cy="0"
             style="fill:#f1c40f;stroke:#f1c40f;stroke-width:2.23796;stroke-dasharray:none"
             id="circle276"
             r="10" /><path
             id="path277"
             style="fill:#f1c40f;stroke:#f1c40f;stroke-width:2.33355;stroke-linecap:round;stroke-linejoin:round;stroke-dasharray:none;paint-order:markers fill stroke"
             transform="matrix(0,1.1469868,-0.80187926,0,-23.405638,0)"
             d="m -9.2853851,-61.663979 c 0.424832,-4.020497 1.761795,-12 1.761795,-12 l 3.761795,12 3.7617951,-12 3.7617951,12 3.761795,-12 c 0,0 1.336963,7.979503 1.761795,12 C 11.449839,-41.180157 13.377906,-20.597652 13.285385,0 13.183799,22.615926 8.2853851,67.663979 8.2853851,67.663979 H -8.2853851 c 0,0 -4.8984139,-45.048053 -4.9999999,-67.663979 -0.09252,-20.597652 1.835546,-41.180157 3.9999999,-61.663979 z"
             sodipodi:nodetypes="acccccaaccaa" /></g><g
           id="g278"
           transform="rotate(37.058824,-360.00161,783.90188)"
           style="fill:#f1c40f;stroke:#f1c40f;stroke-width:2.23796;stroke-dasharray:none"><circle
             cx="0"
             cy="0"
             style="fill:#f1c40f;stroke:#f1c40f;stroke-width:2.23796;stroke-dasharray:none"
             id="circle277"
             r="10" /><path
             id="path278"
             style="fill:#f1c40f;stroke:#f1c40f;stroke-width:2.33355;stroke-linecap:round;stroke-linejoin:round;stroke-dasharray:none;paint-order:markers fill stroke"
             transform="matrix(0,1.1469868,-0.80187926,0,-23.405638,0)"
             d="m -9.2853851,-61.663979 c 0.424832,-4.020497 1.761795,-12 1.761795,-12 l 3.761795,12 3.7617951,-12 3.7617951,12 3.761795,-12 c 0,0 1.336963,7.979503 1.761795,12 C 11.449839,-41.180157 13.377906,-20.597652 13.285385,0 13.183799,22.615926 8.2853851,67.663979 8.2853851,67.663979 H -8.2853851 c 0,0 -4.8984139,-45.048053 -4.9999999,-67.663979 -0.09252,-20.597652 1.835546,-41.180157 3.9999999,-61.663979 z"
             sodipodi:nodetypes="acccccaaccaa" /></g><g
           id="g279"
           transform="rotate(58.235294,-181.76408,531.44324)"
           style="fill:#f1c40f;stroke:#f1c40f;stroke-width:2.23796;stroke-dasharray:none"><circle
             cx="0"
             cy="0"
             style="fill:#f1c40f;stroke:#f1c40f;stroke-width:2.23796;stroke-dasharray:none"
             id="circle278"
             r="10" /><path
             id="path279"
             style="fill:#f1c40f;stroke:#f1c40f;stroke-width:2.33355;stroke-linecap:round;stroke-linejoin:round;stroke-dasharray:none;paint-order:markers fill stroke"
             transform="matrix(0,1.1469868,-0.80187926,0,-23.405638,0)"
             d="m -9.2853851,-61.663979 c 0.424832,-4.020497 1.761795,-12 1.761795,-12 l 3.761795,12 3.7617951,-12 3.7617951,12 3.761795,-12 c 0,0 1.336963,7.979503 1.761795,12 C 11.449839,-41.180157 13.377906,-20.597652 13.285385,0 13.183799,22.615926 8.2853851,67.663979 8.2853851,67.663979 H -8.2853851 c 0,0 -4.8984139,-45.048053 -4.9999999,-67.663979 -0.09252,-20.597652 1.835546,-41.180157 3.9999999,-61.663979 z"
             sodipodi:nodetypes="acccccaaccaa" /></g><g
           id="g280"
           transform="rotate(79.411765,-93.100627,405.85886)"
           style="fill:#f1c40f;stroke:#f1c40f;stroke-width:2.23796;stroke-dasharray:none"><circle
             cx="0"
             cy="0"
             style="fill:#f1c40f;stroke:#f1c40f;stroke-width:2.23796;stroke-dasharray:none"
             id="circle279"
             r="10" /><path
             id="path280"
             style="fill:#f1c40f;stroke:#f1c40f;stroke-width:2.33355;stroke-linecap:round;stroke-linejoin:round;stroke-dasharray:none;paint-order:markers fill stroke"
             transform="matrix(0,1.1469868,-0.80187926,0,-23.405638,0)"
             d="m -9.2853851,-61.663979 c 0.424832,-4.020497 1.761795,-12 1.761795,-12 l 3.761795,12 3.7617951,-12 3.7617951,12 3.761795,-12 c 0,0 1.336963,7.979503 1.761795,12 C 11.449839,-41.180157 13.377906,-20.597652 13.285385,0 13.183799,22.615926 8.2853851,67.663979 8.2853851,67.663979 H -8.2853851 c 0,0 -4.8984139,-45.048053 -4.9999999,-67.663979 -0.09252,-20.597652 1.835546,-41.180157 3.9999999,-61.663979 z"
             sodipodi:nodetypes="acccccaaccaa" /></g><g
           id="g281"
           transform="rotate(100.58824,-37.020922,326.42662)"
           style="fill:#f1c40f;stroke:#f1c40f;stroke-width:2.23796;stroke-dasharray:none"><circle
             cx="0"
             cy="0"
             style="fill:#f1c40f;stroke:#f1c40f;stroke-width:2.23796;stroke-dasharray:none"
             id="circle280"
             r="10" /><path
             id="path281"
             style="fill:#f1c40f;stroke:#f1c40f;stroke-width:2.33355;stroke-linecap:round;stroke-linejoin:round;stroke-dasharray:none;paint-order:markers fill stroke"
             transform="matrix(0,1.1469868,-0.80187926,0,-23.405638,0)"
             d="m -9.2853851,-61.663979 c 0.424832,-4.020497 1.761795,-12 1.761795,-12 l 3.761795,12 3.7617951,-12 3.7617951,12 3.761795,-12 c 0,0 1.336963,7.979503 1.761795,12 C 11.449839,-41.180157 13.377906,-20.597652 13.285385,0 13.183799,22.615926 8.2853851,67.663979 8.2853851,67.663979 H -8.2853851 c 0,0 -4.8984139,-45.048053 -4.9999999,-67.663979 -0.09252,-20.597652 1.835546,-41.180157 3.9999999,-61.663979 z"
             sodipodi:nodetypes="acccccaaccaa" /></g><g
           id="g282"
           transform="rotate(121.76471,3.9880492,268.34083)"
           style="fill:#f1c40f;stroke:#f1c40f;stroke-width:2.23796;stroke-dasharray:none"><circle
             cx="0"
             cy="0"
             style="fill:#f1c40f;stroke:#f1c40f;stroke-width:2.23796;stroke-dasharray:none"
             id="circle281"
             r="10" /><path
             id="path282"
             style="fill:#f1c40f;stroke:#f1c40f;stroke-width:2.33355;stroke-linecap:round;stroke-linejoin:round;stroke-dasharray:none;paint-order:markers fill stroke"
             transform="matrix(0,1.1469868,-0.80187926,0,-23.405638,0)"
             d="m -9.2853851,-61.663979 c 0.424832,-4.020497 1.761795,-12 1.761795,-12 l 3.761795,12 3.7617951,-12 3.7617951,12 3.761795,-12 c 0,0 1.336963,7.979503 1.761795,12 C 11.449839,-41.180157 13.377906,-20.597652 13.285385,0 13.183799,22.615926 8.2853851,67.663979 8.2853851,67.663979 H -8.2853851 c 0,0 -4.8984139,-45.048053 -4.9999999,-67.663979 -0.09252,-20.597652 1.835546,-41.180157 3.9999999,-61.663979 z"
             sodipodi:nodetypes="acccccaaccaa" /></g><g
           id="g283"
           transform="rotate(142.94118,37.262572,221.21026)"
           style="fill:#f1c40f;stroke:#f1c40f;stroke-width:2.23796;stroke-dasharray:none"><circle
             cx="0"
             cy="0"
             style="fill:#f1c40f;stroke:#f1c40f;stroke-width:2.23796;stroke-dasharray:none"
             id="circle282"
             r="10" /><path
             id="path283"
             style="fill:#f1c40f;stroke:#f1c40f;stroke-width:2.33355;stroke-linecap:round;stroke-linejoin:round;stroke-dasharray:none;paint-order:markers fill stroke"
             transform="matrix(0,1.1469868,-0.80187926,0,-23.405638,0)"
             d="m -9.2853851,-61.663979 c 0.424832,-4.020497 1.761795,-12 1.761795,-12 l 3.761795,12 3.7617951,-12 3.7617951,12 3.761795,-12 c 0,0 1.336963,7.979503 1.761795,12 C 11.449839,-41.180157 13.377906,-20.597652 13.285385,0 13.183799,22.615926 8.2853851,67.663979 8.2853851,67.663979 H -8.2853851 c 0,0 -4.8984139,-45.048053 -4.9999999,-67.663979 -0.09252,-20.597652 1.835546,-41.180157 3.9999999,-61.663979 z"
             sodipodi:nodetypes="acccccaaccaa" /></g><g
           id="g284"
           transform="rotate(164.11765,66.613393,179.63725)"
           style="fill:#f1c40f;stroke:#f1c40f;stroke-width:2.23796;stroke-dasharray:none"><circle
             cx="0"
             cy="0"
             style="fill:#f1c40f;stroke:#f1c40f;stroke-width:2.23796;stroke-dasharray:none"
             id="circle283"
             r="10" /><path
             id="path284"
             style="fill:#f1c40f;stroke:#f1c40f;stroke-width:2.33355;stroke-linecap:round;stroke-linejoin:round;stroke-dasharray:none;paint-order:markers fill stroke"
             transform="matrix(0,1.1469868,-0.80187926,0,-23.405638,0)"
             d="m -9.2853851,-61.663979 c 0.424832,-4.020497 1.761795,-12 1.761795,-12 l 3.761795,12 3.7617951,-12 3.7617951,12 3.761795,-12 c 0,0 1.336963,7.979503 1.761795,12 C 11.449839,-41.180157 13.377906,-20.597652 13.285385,0 13.183799,22.615926 8.2853851,67.663979 8.2853851,67.663979 H -8.2853851 c 0,0 -4.8984139,-45.048053 -4.9999999,-67.663979 -0.09252,-20.597652 1.835546,-41.180157 3.9999999,-61.663979 z"
             sodipodi:nodetypes="acccccaaccaa" /></g><g
           id="g285"
           transform="rotate(-174.70588,94.472418,140.17726)"
           style="fill:#f1c40f;stroke:#f1c40f;stroke-width:2.23796;stroke-dasharray:none"><circle
             cx="0"
             cy="0"
             style="fill:#f1c40f;stroke:#f1c40f;stroke-width:2.23796;stroke-dasharray:none"
             id="circle284"
             r="10" /><path
             id="path285"
             style="fill:#f1c40f;stroke:#f1c40f;stroke-width:2.33355;stroke-linecap:round;stroke-linejoin:round;stroke-dasharray:none;paint-order:markers fill stroke"
             transform="matrix(0,1.1469868,-0.80187926,0,-23.405638,0)"
             d="m -9.2853851,-61.663979 c 0.424832,-4.020497 1.761795,-12 1.761795,-12 l 3.761795,12 3.7617951,-12 3.7617951,12 3.761795,-12 c 0,0 1.336963,7.979503 1.761795,12 C 11.449839,-41.180157 13.377906,-20.597652 13.285385,0 13.183799,22.615926 8.2853851,67.663979 8.2853851,67.663979 H -8.2853851 c 0,0 -4.8984139,-45.048053 -4.9999999,-67.663979 -0.09252,-20.597652 1.835546,-41.180157 3.9999999,-61.663979 z"
             sodipodi:nodetypes="acccccaaccaa" /></g><g
           id="g286"
           transform="rotate(-153.52941,122.81718,100.02928)"
           style="fill:#f1c40f;stroke:#f1c40f;stroke-width:2.23796;stroke-dasharray:none"><circle
             cx="0"
             cy="0"
             style="fill:#f1c40f;stroke:#f1c40f;stroke-width:2.23796;stroke-dasharray:none"
             id="circle285"
             r="10" /><path
             id="path286"
             style="fill:#f1c40f;stroke:#f1c40f;stroke-width:2.33355;stroke-linecap:round;stroke-linejoin:round;stroke-dasharray:none;paint-order:markers fill stroke"
             transform="matrix(0,1.1469868,-0.80187926,0,-23.405638,0)"
             d="m -9.2853851,-61.663979 c 0.424832,-4.020497 1.761795,-12 1.761795,-12 l 3.761795,12 3.7617951,-12 3.7617951,12 3.761795,-12 c 0,0 1.336963,7.979503 1.761795,12 C 11.449839,-41.180157 13.377906,-20.597652 13.285385,0 13.183799,22.615926 8.2853851,67.663979 8.2853851,67.663979 H -8.2853851 c 0,0 -4.8984139,-45.048053 -4.9999999,-67.663979 -0.09252,-20.597652 1.835546,-41.180157 3.9999999,-61.663979 z"
             sodipodi:nodetypes="acccccaaccaa" /></g><g
           id="g287"
           transform="rotate(-132.35294,153.76897,56.188631)"
           style="fill:#f1c40f;stroke:#f1c40f;stroke-width:2.23796;stroke-dasharray:none"><circle
             cx="0"
             cy="0"
             style="fill:#f1c40f;stroke:#f1c40f;stroke-width:2.23796;stroke-dasharray:none"
             id="circle286"
             r="10" /><path
             id="path287"
             style="fill:#f1c40f;stroke:#f1c40f;stroke-width:2.33355;stroke-linecap:round;stroke-linejoin:round;stroke-dasharray:none;paint-order:markers fill stroke"
             transform="matrix(0,1.1469868,-0.80187926,0,-23.405638,0)"
             d="m -9.2853851,-61.663979 c 0.424832,-4.020497 1.761795,-12 1.761795,-12 l 3.761795,12 3.7617951,-12 3.7617951,12 3.761795,-12 c 0,0 1.336963,7.979503 1.761795,12 C 11.449839,-41.180157 13.377906,-20.597652 13.285385,0 13.183799,22.615926 8.2853851,67.663979 8.2853851,67.663979 H -8.2853851 c 0,0 -4.8984139,-45.048053 -4.9999999,-67.663979 -0.09252,-20.597652 1.835546,-41.180157 3.9999999,-61.663979 z"
             sodipodi:nodetypes="acccccaaccaa" /></g><g
           id="g288"
           transform="rotate(-111.17647,190.28989,4.4598)"
           style="fill:#f1c40f;stroke:#f1c40f;stroke-width:2.23796;stroke-dasharray:none"><circle
             cx="0"
             cy="0"
             style="fill:#f1c40f;stroke:#f1c40f;stroke-width:2.23796;stroke-dasharray:none"
             id="circle287"
             r="10" /><path
             id="path288"
             style="fill:#f1c40f;stroke:#f1c40f;stroke-width:2.33355;stroke-linecap:round;stroke-linejoin:round;stroke-dasharray:none;paint-order:markers fill stroke"
             transform="matrix(0,1.1469868,-0.80187926,0,-23.405638,0)"
             d="m -9.2853851,-61.663979 c 0.424832,-4.020497 1.761795,-12 1.761795,-12 l 3.761795,12 3.7617951,-12 3.7617951,12 3.761795,-12 c 0,0 1.336963,7.979503 1.761795,12 C 11.449839,-41.180157 13.377906,-20.597652 13.285385,0 13.183799,22.615926 8.2853851,67.663979 8.2853851,67.663979 H -8.2853851 c 0,0 -4.8984139,-45.048053 -4.9999999,-67.663979 -0.09252,-20.597652 1.835546,-41.180157 3.9999999,-61.663979 z"
             sodipodi:nodetypes="acccccaaccaa" /></g><defs
           id="defs290" /></g><path
         sodipodi:type="star"
         style="font-variation-settings:normal;vector-effect:none;fill:#f39c12;fill-opacity:1;stroke:none;stroke-width:3.88619;stroke-linecap:round;stroke-linejoin:round;stroke-miterlimit:4;stroke-dasharray:none;stroke-dashoffset:0;stroke-opacity:1;-inkscape-stroke:none;paint-order:markers fill stroke"
         id="path291"
         inkscape:flatsided="false"
         sodipodi:sides="15"
         sodipodi:cx="-43.500492"
         sodipodi:cy="332.53711"
         sodipodi:r1="17.40691"
         sodipodi:r2="15.721858"
         sodipodi:arg1="-1.5707963"
         sodipodi:arg2="-1.3613568"
         inkscape:rounded="0.36"
         inkscape:randomized="0"
         d="m -43.500492,315.1302 c 1.38495,0 1.914073,1.74066 3.268758,2.02861 1.354686,0.28795 2.546056,-1.08701 3.81127,-0.5237 1.265215,0.56331 1.0406,2.3687 2.161048,3.18275 1.120448,0.81405 2.768067,0.0425 3.694779,1.07175 0.926713,1.02922 -0.0128,2.58717 0.679673,3.78657 0.692475,1.1994 2.511454,1.16473 2.939427,2.4819 0.427973,1.31716 -1.06399,2.35829 -0.919223,3.73565 0.144767,1.37736 1.820588,2.08553 1.675821,3.4629 -0.144767,1.37736 -1.931205,1.72164 -2.359178,3.0388 -0.427973,1.31717 0.814926,2.64573 0.122451,3.84513 -0.692475,1.19941 -2.464497,0.78731 -3.391209,1.81653 -0.926712,1.02921 -0.331644,2.74845 -1.452093,3.56251 -1.120447,0.81405 -2.571654,-0.28317 -3.836869,0.28014 -1.265214,0.56331 -1.42087,2.37595 -2.775555,2.6639 -1.354686,0.28794 -2.234151,-1.30467 -3.6191,-1.30467 -1.38495,0 -2.264415,1.59261 -3.619101,1.30467 -1.354685,-0.28795 -1.510341,-2.10059 -2.775555,-2.6639 -1.265215,-0.56331 -2.716421,0.53391 -3.836869,-0.28014 -1.120448,-0.81406 -0.52538,-2.5333 -1.452093,-3.56251 -0.926712,-1.02922 -2.698734,-0.61712 -3.391209,-1.81653 -0.692474,-1.1994 0.550424,-2.52796 0.122451,-3.84513 -0.427973,-1.31717 -2.214411,-1.66144 -2.359177,-3.0388 -0.144767,-1.37737 1.531054,-2.08554 1.675821,-3.4629 0.144767,-1.37737 -1.347196,-2.41849 -0.919223,-3.73565 0.427973,-1.31717 2.246952,-1.2825 2.939427,-2.4819 0.692475,-1.1994 -0.247039,-2.75735 0.679673,-3.78657 0.926712,-1.02922 2.574331,-0.2577 3.694779,-1.07175 1.120448,-0.81405 0.895834,-2.61944 2.161048,-3.18275 1.265215,-0.56331 2.456585,0.81165 3.81127,0.5237 1.354686,-0.28795 1.883808,-2.02861 3.268758,-2.02861 z"
         transform="matrix(0.38598277,0,0,0.38598189,396.26395,756.6591)" /><path
         id="use291"
         style="vector-effect:none;fill:#27ae60;stroke-width:2.17649;stroke-linecap:round;stroke-linejoin:round;paint-order:markers fill stroke"
         d="m -141.26133,485.60731 c 2.98035,6.18435 4.9518,12.8546 5.80423,19.66678 1.62603,12.99444 -0.90304,26.47695 -7.12785,37.99872 -6.51332,-11.41038 -9.1834,-24.97085 -7.48201,-37.99872 0.89441,-6.84866 2.9705,-13.54068 6.10084,-19.69701 0.72847,-1.43265 2.00704,-1.41764 2.70479,0.0302 z"
         sodipodi:nodetypes="cacac"
         transform="matrix(-0.61565638,0.30974578,0.30974578,0.61565638,123.42288,680.9292)"
         inkscape:original-d="m -142.58495,483.01559 c 0,0 6.64325,14.48295 7.12785,22.2585 0.80161,12.8622 -7.12785,37.99872 -7.12785,37.99872 0,0 -8.31964,-25.11648 -7.48201,-37.99872 0.50788,-7.81096 7.48201,-22.2585 7.48201,-22.2585 z"
         inkscape:path-effect="#path-effect350;#path-effect352" /><use
         x="0"
         y="0"
         xlink:href="#path91"
         id="use292"
         transform="rotate(90,-84.931649,1113.3695)" /><path
         id="use293"
         style="font-variation-settings:normal;fill:#27ae60;fill-opacity:1;stroke:#27ae60;stroke-width:2.97346;stroke-linecap:round;stroke-linejoin:round;stroke-miterlimit:4;stroke-dasharray:none;stroke-dashoffset:0;stroke-opacity:1;paint-order:markers fill stroke;stop-color:#000000"
         d="m -182.43272,471.56272 c 13.20232,6.98924 24.26523,17.95698 31.36828,31.09842 4.36553,8.07673 7.25377,16.94899 8.47949,26.04784 h -6.02217 c -4.99743,-0.66422 -9.7666,-2.94793 -13.4172,-6.4248 -3.65059,-3.47688 -6.16394,-8.12913 -7.07083,-13.08827 -1.09766,-6.00227 0.11396,-12.2193 -0.72218,-18.26355 -1.09068,-7.88426 -5.84524,-15.1844 -12.61539,-19.36964 z"
         sodipodi:nodetypes="caccssc"
         transform="matrix(0,0.16724532,0.16906818,0,290.08578,947.62512)"
         inkscape:original-d="m -182.43272,471.56272 c 0,0 23.65532,18.59357 31.36828,31.09842 4.80158,7.7847 8.47949,26.04784 8.47949,26.04784 h -6.02217 c 0,0 -19.51968,-11.03686 -20.48803,-19.51307 -0.74171,-6.49237 -1.43669,-10.09903 -0.72218,-18.26355 0.71451,-8.16452 -12.61539,-19.36964 -12.61539,-19.36964 z"
         inkscape:path-effect="#path-effect394" /><use
         x="0"
         y="0"
         xlink:href="#g96"
         id="use294"
         transform="rotate(26.703009,-507.08686,2129.1362)"
         inkscape:transform-center-x="-4.8380928"
         inkscape:transform-center-y="-8.3061892" /><g
         id="use295"
         transform="matrix(-0.47197598,0.23741025,0.25495196,0.50684924,228.51819,649.42078)"
         style="stroke-width:1.82651"><path
           style="font-variation-settings:normal;opacity:1;vector-effect:none;fill:none;fill-opacity:1;stroke:#27ae60;stroke-width:2.73976;stroke-linecap:round;stroke-linejoin:round;stroke-miterlimit:4;stroke-dasharray:none;stroke-dashoffset:0;stroke-opacity:1;-inkscape-stroke:none;stop-color:#000000;stop-opacity:1"
           d="m -45.055689,418.7364 c 1.614934,-1.38292 3.158594,-2.84907 4.622808,-4.39068 2.65971,-2.8003 5.056689,-5.85003 7.149218,-9.09611"
           id="path414"
           transform="rotate(-37.025775,161.46933,451.15563)"
           sodipodi:nodetypes="csc"
           inkscape:original-d="m -45.055689,418.7364 c 1.388938,-0.64021 3.005873,-2.48523 4.622808,-4.39068 1.616932,-1.90545 5.593947,-7.18171 7.149218,-9.09611"
           inkscape:path-effect="#path-effect416" /><path
           id="path415"
           style="opacity:1;vector-effect:none;fill:#27ae60;stroke:#27ae60;stroke-width:5.67314;stroke-linecap:round;stroke-linejoin:round;paint-order:markers fill stroke"
           d="m -160.84352,651.12807 c 1.57967,-3.50026 3.88144,-6.67271 6.71886,-9.26041 2.83742,2.5877 5.13919,5.76015 6.71886,9.26041 1.1853,2.62641 1.96935,5.45902 2.05242,8.33932 0.0831,2.88029 -0.5586,5.81141 -2.05242,8.27545 -1.52995,2.52365 -3.94312,4.49986 -6.71886,5.50227 -2.77574,-1.00241 -5.18891,-2.97862 -6.71886,-5.50227 -1.49382,-2.46404 -2.13548,-5.39516 -2.05242,-8.27545 0.0831,-2.8803 0.86712,-5.71291 2.05242,-8.33932 z"
           sodipodi:nodetypes="acaacaa"
           transform="matrix(0.47023885,0,0,0.49597318,50.817395,197.8696)"
           inkscape:original-d="m -160.84352,651.12807 c 1.17732,-3.62742 6.71886,-9.26041 6.71886,-9.26041 0,0 5.54154,5.63299 6.71886,9.26041 1.70969,5.26775 2.37052,11.60948 0,16.61477 -1.23905,2.61621 -6.71886,5.50227 -6.71886,5.50227 0,0 -5.47981,-2.88606 -6.71886,-5.50227 -2.37052,-5.00529 -1.70969,-11.34702 0,-16.61477 z"
           inkscape:path-effect="#path-effect418" /></g></g></g></svg>
